<svg aria-hidden="true" style="position: absolute; width: 0; height: 0; overflow: hidden;" version="1.1" xmlns="http://www.w3.org/2000/svg" xmlns:xlink="http://www.w3.org/1999/xlink">
<defs>
<symbol id="burger" viewBox="0 0 37 32">
<path fill="#fff" style="fill: var(--color1, #fff)" d="M0 0h36.923v2.462h-36.923v-2.462z"></path>
<path fill="#fff" style="fill: var(--color1, #fff)" d="M0 14.769h36.923v2.462h-36.923v-2.462z"></path>
<path fill="#fff" style="fill: var(--color1, #fff)" d="M0 29.538h36.923v2.462h-36.923v-2.462z"></path>
</symbol>
<symbol id="logo" viewBox="0 0 146 32">
<path fill="#fff" style="fill: var(--color1, #fff)" d="M6.893 0.35h6.615v1.767h-2.196v25.040h-1.97v-25.040h-2.449v-1.767z"></path>
<path fill="#fff" style="fill: var(--color1, #fff)" d="M22.936 4.036c0.035 0 0.053 0.162 0.053 0.487s-0.004 0.65-0.013 0.975v0.472c-0.701 0-1.322 0.162-1.863 0.487-0.532 0.315-1.056 0.888-1.57 1.721v18.978h-1.983v-22.847h1.983v2.544c0.231-0.894 0.634-1.584 1.211-2.071 0.586-0.498 1.313-0.746 2.183-0.746z"></path>
<path fill="#fff" style="fill: var(--color1, #fff)" d="M27.161 4.31h1.996v22.847h-1.996v-22.847zM27.161 0.015h1.983v2.193h-1.983v-2.193z"></path>
<path fill="#fff" style="fill: var(--color1, #fff)" d="M40.609 10.997c0-1.787-0.067-2.899-0.2-3.336-0.124-0.447-0.275-0.828-0.452-1.142s-0.47-0.472-0.878-0.472c-0.408 0-0.71 0.030-0.905 0.091-0.479 0.152-0.83 0.594-1.052 1.325-0.222 0.721-0.333 1.909-0.333 3.564v9.078c0 1.939 0.133 3.31 0.399 4.112 0.275 0.792 0.79 1.188 1.544 1.188s1.256-0.396 1.504-1.188c0.248-0.792 0.373-2.188 0.373-4.189v-9.032zM36.789 6.062c0.47-1.279 1.353-1.919 2.649-1.919 0.905 0 1.584 0.345 2.036 1.036 0.461 0.68 0.763 1.564 0.905 2.65 0.142 1.076 0.213 2.376 0.213 3.899v8.194c0 0.030 0 0.066 0 0.107 0 2.874-0.328 4.828-0.985 5.864-0.657 1.026-1.553 1.538-2.689 1.538-0.452 0-0.878-0.183-1.278-0.548-0.39-0.376-0.674-0.833-0.852-1.371v5.681h-1.983v-26.883h1.983v1.752z"></path>
<path fill="#fff" style="fill: var(--color1, #fff)" d="M55.806 4.585l0.013 0.625c0 1.097 0.497 3.046 1.491 5.849 0.683-0.975 1.207-1.929 1.571-2.863 0.373-0.944 0.559-1.995 0.559-3.153s-0.111-1.98-0.333-2.467c-0.222-0.498-0.745-0.746-1.57-0.746-1.074 0-1.642 0.706-1.704 2.117-0.009 0.223-0.018 0.371-0.027 0.442 0 0.061 0 0.127 0 0.198zM61.529 21.598c1.26 3.026 2.023 4.879 2.289 5.559h-1.65c-0.231-0.63-0.701-1.777-1.411-3.442-0.444 1.147-0.901 1.97-1.371 2.467s-0.941 0.833-1.411 1.005c-0.461 0.183-0.994 0.274-1.597 0.274-1.207 0-2.183-0.477-2.928-1.432s-1.118-2.264-1.118-3.93c0-1.665 0.146-2.899 0.439-3.701 0.302-0.802 0.586-1.508 0.852-2.117s1.091-1.807 2.476-3.595c-1.482-3.798-2.223-6.301-2.223-7.509 0-3.442 1.269-5.163 3.807-5.163 1.482 0 2.453 0.447 2.915 1.34 0.47 0.894 0.705 2.143 0.705 3.747s-0.31 3.006-0.932 4.204c-0.612 1.188-1.384 2.442-2.316 3.762 0.63 1.665 1.477 3.757 2.542 6.275 0.719-1.726 1.508-3.168 2.369-4.326l0.918 1.63c-0.799 1.137-1.584 2.787-2.356 4.95zM59.772 21.43c-1.295-2.985-2.249-5.224-2.862-6.717-0.745 1.137-1.358 2.29-1.837 3.458s-0.723 2.503-0.732 4.006c0 2.254 0.759 3.381 2.276 3.381 0.834 0 1.535-0.558 2.103-1.675 0.284-0.579 0.634-1.396 1.051-2.452z"></path>
<path fill="#fff" style="fill: var(--color1, #fff)" d="M82.542 0.35h2.223v26.807h-1.797v-11.484l0.306-10.799-3.341 21.705h-1.89l-3.46-21.705 0.306 10.799v11.484h-1.81v-26.807h2.223l3.687 22.512 3.554-22.512z"></path>
<path fill="#fff" style="fill: var(--color1, #fff)" d="M90.414 4.31h1.997v22.847h-1.997v-22.847zM90.414 0.015h1.983v2.193h-1.983v-2.193z"></path>
<path fill="#fff" style="fill: var(--color1, #fff)" d="M100.042 6.549c0.177-0.68 0.568-1.269 1.171-1.767 0.613-0.508 1.331-0.762 2.156-0.762s1.504 0.391 2.037 1.173c0.532 0.782 0.798 1.955 0.798 3.518v18.445h-1.983v-18.628c0-0.883-0.177-1.518-0.532-1.904-0.347-0.396-0.812-0.594-1.398-0.594-1.499 0-2.249 0.848-2.249 2.544v18.582h-1.983v-22.847h1.983v2.239z"></path>
<path fill="#fff" style="fill: var(--color1, #fff)" d="M117.11 11.363c0-1.96-0.133-3.331-0.399-4.112-0.258-0.792-0.763-1.188-1.518-1.188s-1.26 0.406-1.517 1.218c-0.258 0.802-0.387 2.198-0.387 4.189v9.047c0 2.092 0.143 3.432 0.426 4.021 0.293 0.589 0.723 0.883 1.291 0.883s0.972-0.117 1.211-0.35c0.249-0.244 0.457-0.645 0.625-1.203 0.177-0.569 0.266-1.676 0.266-3.32v-9.184zM117.097 0h1.996v27.157h-1.996v-1.736c-0.462 1.269-1.345 1.904-2.649 1.904-1.482-0.010-2.423-1.021-2.822-3.031-0.222-1.107-0.333-2.594-0.333-4.463v-8.027c0-3.067 0.319-5.128 0.958-6.184 0.647-1.056 1.557-1.584 2.728-1.584 0.453 0 0.87 0.188 1.252 0.564 0.39 0.366 0.678 0.812 0.865 1.34v-5.94z"></path>
<path fill="#efc224" style="fill: var(--color2, #efc224)" d="M140.237 7.327l5.783 6.617c0.355 0.406 0.355 1.064 0 1.471l-5.783 6.617c-0.355 0.406-0.93 0.406-1.285 0s-0.355-1.064 0-1.47l4.231-4.842h-15.979v-2.080h15.979l-4.231-4.842c-0.355-0.406-0.355-1.064 0-1.47s0.93-0.406 1.285 0z"></path>
<path fill="#efc224" style="fill: var(--color2, #efc224)" d="M3.634 13.64h-3.634v2.080h3.634v-2.080z"></path>
</symbol>
</defs>
</svg>
